<svg width="180" height="52" viewBox="0 0 180 52" fill="none" xmlns="http://www.w3.org/2000/svg">
<g filter="url(#filter0_d)">
<path d="M4.208 13.36C5.392 13.104 6.432 12.816 7.328 12.496C8.224 12.176 9.04 11.776 9.776 11.296C10.544 10.816 11.264 10.224 11.936 9.52C12.64 8.816 13.392 7.952 14.192 6.928H19.136L17.744 13.36H21.488L20.864 16.576H17.072L15.104 25.936C14.944 26.672 14.816 27.328 14.72 27.904C14.624 28.48 14.576 28.928 14.576 29.248C14.576 29.888 14.8 30.288 15.248 30.448C15.728 30.608 16.608 30.688 17.888 30.688L17.168 34C16.944 34.064 16.592 34.112 16.112 34.144C15.664 34.176 15.152 34.208 14.576 34.24C14.032 34.304 13.456 34.336 12.848 34.336C12.272 34.368 11.76 34.384 11.312 34.384C10.512 34.384 9.728 34.32 8.96 34.192C8.192 34.096 7.504 33.888 6.896 33.568C6.288 33.216 5.792 32.72 5.408 32.08C5.056 31.44 4.88 30.576 4.88 29.488C4.88 29.104 4.896 28.624 4.928 28.048C4.992 27.472 5.104 26.832 5.264 26.128L7.28 16.576H3.536L4.208 13.36ZM33.8529 16.432H34.1889C34.7969 15.824 35.5009 15.264 36.3009 14.752C36.9729 14.304 37.7729 13.904 38.7009 13.552C39.6289 13.2 40.6689 13.024 41.8209 13.024C43.4849 13.024 44.8609 13.456 45.9489 14.32C47.0369 15.152 47.5809 16.304 47.5809 17.776C47.5809 18.224 47.5329 18.736 47.4369 19.312C47.3409 19.856 47.2289 20.448 47.1009 21.088C46.9729 21.696 46.8289 22.32 46.6689 22.96C46.5409 23.568 46.4289 24.128 46.3329 24.64L44.3169 34H34.5729L37.2129 21.472C37.2769 21.056 37.3569 20.64 37.4529 20.224C37.5489 19.776 37.5969 19.376 37.5969 19.024C37.5969 18.544 37.4689 18.16 37.2129 17.872C36.9889 17.552 36.6369 17.392 36.1569 17.392C35.5809 17.392 35.0209 17.6 34.4769 18.016C33.9649 18.432 33.5649 18.8 33.2769 19.12L30.1089 34H20.3169L27.1329 1.744H36.9729L33.8529 16.432ZM59.3859 24.352C59.2579 25.056 59.1619 25.728 59.0979 26.368C59.0659 27.008 59.0499 27.584 59.0499 28.096C59.0499 28.384 59.0659 28.704 59.0979 29.056C59.1299 29.408 59.1939 29.744 59.2899 30.064C59.4179 30.352 59.5779 30.608 59.7699 30.832C59.9939 31.024 60.2979 31.12 60.6819 31.12C60.9699 31.12 61.2899 31.024 61.6419 30.832C62.0259 30.64 62.3939 30.368 62.7459 30.016C63.1299 29.664 63.4819 29.232 63.8019 28.72C64.1539 28.208 64.4259 27.632 64.6179 26.992H72.4899L71.2419 32.128C70.6019 32.544 69.8659 32.896 69.0339 33.184C68.2019 33.472 67.3219 33.712 66.3939 33.904C65.4659 34.064 64.5219 34.176 63.5619 34.24C62.6019 34.336 61.6899 34.384 60.8259 34.384C59.2259 34.384 57.7379 34.24 56.3619 33.952C54.9859 33.664 53.7859 33.168 52.7619 32.464C51.7379 31.76 50.9219 30.832 50.3139 29.68C49.7379 28.496 49.4499 27.04 49.4499 25.312C49.4499 23.744 49.6899 22.208 50.1699 20.704C50.6819 19.2 51.5139 17.872 52.6659 16.72C53.8499 15.536 55.4179 14.592 57.3699 13.888C59.3539 13.184 61.8179 12.832 64.7619 12.832C67.9619 12.832 70.3619 13.328 71.9619 14.32C73.5939 15.312 74.4099 16.864 74.4099 18.976C74.4099 19.84 74.2819 20.784 74.0259 21.808C73.7699 22.8 73.3859 23.648 72.8739 24.352H59.3859ZM65.7699 18.64C65.7699 17.648 65.6099 16.976 65.2899 16.624C64.9699 16.272 64.5859 16.096 64.1379 16.096C63.6259 16.096 63.1459 16.272 62.6979 16.624C62.2819 16.944 61.8979 17.392 61.5459 17.968C61.1939 18.512 60.8739 19.152 60.5859 19.888C60.2979 20.592 60.0579 21.344 59.8659 22.144H65.3379C65.4019 21.76 65.4659 21.36 65.5299 20.944C65.5939 20.592 65.6419 20.208 65.6739 19.792C65.7379 19.376 65.7699 18.992 65.7699 18.64ZM82.4679 34H74.6919L81.5079 1.744H91.3479L88.2279 16.432H88.5639C89.6199 15.216 90.8039 14.352 92.1159 13.84C93.4599 13.296 94.7879 13.024 96.0999 13.024C97.2199 13.024 98.1479 13.2 98.8839 13.552C99.6519 13.872 100.26 14.32 100.708 14.896C101.156 15.472 101.476 16.16 101.668 16.96C101.86 17.76 101.956 18.608 101.956 19.504C101.956 19.952 101.924 20.624 101.86 21.52C101.796 22.416 101.652 23.424 101.428 24.544C101.204 25.632 100.884 26.768 100.468 27.952C100.052 29.104 99.4919 30.16 98.7879 31.12C98.1159 32.08 97.2519 32.864 96.1959 33.472C95.1719 34.08 93.9399 34.384 92.4999 34.384C91.6359 34.384 90.7879 34.288 89.9559 34.096C89.1559 33.904 88.4199 33.648 87.7479 33.328C87.1079 33.008 86.5319 32.64 86.0199 32.224C85.5399 31.776 85.1879 31.328 84.9639 30.88H84.6279L82.4679 34ZM87.8919 29.728C88.6599 29.728 89.2999 29.328 89.8119 28.528C90.3239 27.696 90.7399 26.736 91.0599 25.648C91.3799 24.528 91.6039 23.424 91.7319 22.336C91.8919 21.216 91.9719 20.384 91.9719 19.84C91.9719 19.2 91.8599 18.672 91.6359 18.256C91.4439 17.84 91.0759 17.632 90.5319 17.632C89.8919 17.632 89.2999 17.872 88.7559 18.352C88.2119 18.8 87.8119 19.184 87.5559 19.504L85.6839 28.096C85.9079 28.48 86.1959 28.848 86.5479 29.2C86.9319 29.552 87.3799 29.728 87.8919 29.728ZM112.562 34H102.77L109.586 1.744H119.426L112.562 34ZM132.433 12.832C136.241 12.832 139.009 13.504 140.737 14.848C142.561 16.256 143.473 18.592 143.473 21.856C143.473 23.872 143.137 25.696 142.465 27.328C141.793 28.928 140.849 30.256 139.633 31.312C137.201 33.36 133.681 34.384 129.073 34.384C125.137 34.384 122.321 33.632 120.625 32.128C118.801 30.56 117.889 28.208 117.889 25.072C117.889 22.992 118.305 21.104 119.137 19.408C120.001 17.712 121.233 16.304 122.833 15.184C125.169 13.616 128.369 12.832 132.433 12.832ZM129.169 31.12C129.969 31.12 130.657 30.672 131.233 29.776C131.841 28.88 132.321 27.792 132.673 26.512C133.025 25.2 133.281 23.856 133.441 22.48C133.633 21.072 133.729 19.856 133.729 18.832C133.729 17.936 133.633 17.264 133.441 16.816C133.281 16.336 132.913 16.096 132.337 16.096C131.473 16.096 130.721 16.56 130.081 17.488C129.473 18.416 128.977 19.52 128.593 20.8C128.209 22.08 127.921 23.392 127.729 24.736C127.569 26.08 127.489 27.168 127.489 28C127.489 30.08 128.049 31.12 129.169 31.12ZM164.506 13.36H172.282L168.346 32.032C168.058 33.472 167.578 34.8 166.906 36.016C166.234 37.232 165.29 38.288 164.074 39.184C162.89 40.08 161.386 40.784 159.562 41.296C157.77 41.808 155.578 42.064 152.986 42.064C152.506 42.064 151.93 42.048 151.258 42.016C150.586 42.016 149.898 42 149.194 41.968C148.49 41.968 147.818 41.952 147.178 41.92C146.538 41.888 146.026 41.856 145.642 41.824L146.554 38.368C147.578 38.528 148.618 38.608 149.674 38.608C150.762 38.64 151.69 38.656 152.458 38.656C153.418 38.656 154.218 38.56 154.858 38.368C155.53 38.208 156.074 37.936 156.49 37.552C156.938 37.168 157.29 36.656 157.546 36.016C157.834 35.376 158.058 34.592 158.218 33.664L158.794 30.544H158.458C158.266 30.832 157.978 31.184 157.594 31.6C157.242 31.984 156.778 32.368 156.202 32.752C155.626 33.104 154.938 33.408 154.138 33.664C153.37 33.888 152.49 34 151.498 34C150.378 34 149.418 33.84 148.618 33.52C147.85 33.168 147.226 32.704 146.746 32.128C146.266 31.52 145.914 30.816 145.69 30.016C145.466 29.184 145.354 28.288 145.354 27.328C145.354 26.912 145.386 26.272 145.45 25.408C145.514 24.544 145.658 23.568 145.882 22.48C146.138 21.392 146.49 20.288 146.938 19.168C147.418 18.016 148.042 16.976 148.81 16.048C149.61 15.12 150.586 14.352 151.738 13.744C152.922 13.136 154.346 12.832 156.01 12.832C156.522 12.832 157.082 12.88 157.69 12.976C158.298 13.072 158.89 13.248 159.466 13.504C160.042 13.76 160.554 14.128 161.002 14.608C161.45 15.088 161.802 15.712 162.058 16.48H162.346L164.506 13.36ZM159.13 17.536C158.362 17.536 157.722 17.952 157.21 18.784C156.698 19.584 156.282 20.528 155.962 21.616C155.642 22.704 155.402 23.792 155.242 24.88C155.114 25.936 155.05 26.72 155.05 27.232C155.05 27.872 155.146 28.416 155.338 28.864C155.562 29.28 155.946 29.488 156.49 29.488C156.81 29.488 157.114 29.408 157.402 29.248C157.722 29.088 158.01 28.912 158.266 28.72C158.554 28.496 158.794 28.272 158.986 28.048C159.21 27.824 159.37 27.648 159.466 27.52L161.242 19.12C160.986 18.768 160.682 18.416 160.33 18.064C160.01 17.712 159.61 17.536 159.13 17.536Z" fill="white"/>
<path d="M4.208 13.36L3.99667 12.3826L3.36196 12.5198L3.22914 13.1555L4.208 13.36ZM7.328 12.496L7.66434 13.4377L7.66434 13.4377L7.328 12.496ZM9.776 11.296L9.246 10.448L9.23782 10.4531L9.22973 10.4584L9.776 11.296ZM11.936 9.52L11.2289 8.81289L11.2207 8.82111L11.2126 8.82952L11.936 9.52ZM14.192 6.928V5.928H13.7043L13.404 6.31236L14.192 6.928ZM19.136 6.928L20.1134 7.13952L20.3756 5.928H19.136V6.928ZM17.744 13.36L16.7666 13.1485L16.5044 14.36H17.744V13.36ZM21.488 13.36L22.4697 13.5505L22.7007 12.36H21.488V13.36ZM20.864 16.576V17.576H21.6886L21.8457 16.7665L20.864 16.576ZM17.072 16.576V15.576H16.2604L16.0934 16.3702L17.072 16.576ZM15.104 25.936L16.0812 26.1484L16.0826 26.1418L15.104 25.936ZM14.72 27.904L15.7064 28.0684L15.7064 28.0684L14.72 27.904ZM15.248 30.448L14.9117 31.3897L14.9217 31.3933L14.9318 31.3967L15.248 30.448ZM17.888 30.688L18.8652 30.9004L19.1287 29.688H17.888V30.688ZM17.168 34L17.4427 34.9615L18.0181 34.7971L18.1452 34.2124L17.168 34ZM16.112 34.144L16.0455 33.1462L16.0408 33.1465L16.112 34.144ZM14.576 34.24L14.5205 33.2415L14.4898 33.2432L14.4592 33.2468L14.576 34.24ZM12.848 34.336V33.336H12.8202L12.7925 33.3375L12.848 34.336ZM8.96 34.192L9.1244 33.2056L9.10428 33.2023L9.08404 33.1997L8.96 34.192ZM6.896 33.568L6.39496 34.4334L6.41241 34.4435L6.43025 34.4529L6.896 33.568ZM5.408 32.08L4.53178 32.5619L4.54084 32.5784L4.55051 32.5945L5.408 32.08ZM4.928 28.048L3.93412 27.9376L3.93107 27.965L3.92954 27.9925L4.928 28.048ZM5.264 26.128L6.23913 26.3496L6.24085 26.3421L6.24245 26.3345L5.264 26.128ZM7.28 16.576L8.25845 16.7825L8.51309 15.576H7.28V16.576ZM3.536 16.576L2.55714 16.3715L2.30545 17.576H3.536V16.576ZM4.41933 14.3374C5.63489 14.0746 6.71823 13.7756 7.66434 13.4377L6.99166 11.5543C6.14577 11.8564 5.14911 12.1334 3.99667 12.3826L4.41933 14.3374ZM7.66434 13.4377C8.62811 13.0935 9.51545 12.6598 10.3223 12.1336L9.22973 10.4584C8.56456 10.8922 7.81989 11.2585 6.99166 11.5543L7.66434 13.4377ZM10.306 12.144C11.1498 11.6166 11.934 10.9704 12.6594 10.2105L11.2126 8.82952C10.594 9.47763 9.93817 10.0154 9.246 10.448L10.306 12.144ZM12.6431 10.2271C13.3831 9.48715 14.162 8.59066 14.98 7.54364L13.404 6.31236C12.622 7.31334 11.8969 8.14485 11.2289 8.81289L12.6431 10.2271ZM14.192 7.928H19.136V5.928H14.192V7.928ZM18.1586 6.71648L16.7666 13.1485L18.7214 13.5715L20.1134 7.13952L18.1586 6.71648ZM17.744 14.36H21.488V12.36H17.744V14.36ZM20.5063 13.1695L19.8823 16.3855L21.8457 16.7665L22.4697 13.5505L20.5063 13.1695ZM20.864 15.576H17.072V17.576H20.864V15.576ZM16.0934 16.3702L14.1254 25.7302L16.0826 26.1418L18.0506 16.7818L16.0934 16.3702ZM14.1268 25.7236C13.9643 26.4712 13.8329 27.1437 13.7336 27.7396L15.7064 28.0684C15.7991 27.5123 15.9237 26.8728 16.0812 26.1484L14.1268 25.7236ZM13.7336 27.7396C13.6346 28.3334 13.576 28.8453 13.576 29.248H15.576C15.576 29.0107 15.6134 28.6266 15.7064 28.0684L13.7336 27.7396ZM13.576 29.248C13.576 29.6748 13.6493 30.1198 13.8715 30.5166C14.1064 30.936 14.4694 31.2318 14.9117 31.3897L15.5843 29.5063C15.5733 29.5023 15.5803 29.5032 15.5942 29.5148C15.6005 29.52 15.606 29.5257 15.6104 29.531C15.6148 29.5363 15.6166 29.5396 15.6165 29.5394C15.6147 29.5362 15.576 29.4612 15.576 29.248H13.576ZM14.9318 31.3967C15.5842 31.6142 16.6158 31.688 17.888 31.688V29.688C16.6002 29.688 15.8718 29.6018 15.5642 29.4993L14.9318 31.3967ZM16.9108 30.4756L16.1908 33.7876L18.1452 34.2124L18.8652 30.9004L16.9108 30.4756ZM16.8933 33.0385C16.7765 33.0718 16.5129 33.1151 16.0455 33.1462L16.1785 35.1418C16.6711 35.1089 17.1115 35.0562 17.4427 34.9615L16.8933 33.0385ZM16.0408 33.1465C15.5992 33.1781 15.0927 33.2098 14.5205 33.2415L14.6315 35.2385C15.2113 35.2062 15.7288 35.1739 16.1832 35.1415L16.0408 33.1465ZM14.4592 33.2468C13.9579 33.3058 13.4211 33.336 12.848 33.336V35.336C13.4909 35.336 14.1061 35.3022 14.6928 35.2332L14.4592 33.2468ZM12.7925 33.3375C12.2301 33.3688 11.7371 33.384 11.312 33.384V35.384C11.7829 35.384 12.3139 35.3672 12.9035 35.3345L12.7925 33.3375ZM11.312 33.384C10.5656 33.384 9.8366 33.3243 9.1244 33.2056L8.7956 35.1784C9.6194 35.3157 10.4584 35.384 11.312 35.384V33.384ZM9.08404 33.1997C8.42048 33.1168 7.85063 32.9404 7.36175 32.6831L6.43025 34.4529C7.15737 34.8356 7.96352 35.0752 8.83597 35.1843L9.08404 33.1997ZM7.39704 32.7026C6.94484 32.4408 6.56794 32.0696 6.26549 31.5655L4.55051 32.5945C5.01606 33.3704 5.63117 33.9912 6.39496 34.4334L7.39704 32.7026ZM6.28422 31.5981C6.0436 31.1606 5.88 30.4838 5.88 29.488H3.88C3.88 30.6682 4.0684 31.7194 4.53178 32.5619L6.28422 31.5981ZM5.88 29.488C5.88 29.1292 5.89503 28.6692 5.92646 28.1035L3.92954 27.9925C3.89697 28.5788 3.88 29.0788 3.88 29.488H5.88ZM5.92188 28.1584C5.98087 27.6276 6.08554 27.0254 6.23913 26.3496L4.28887 25.9064C4.12246 26.6386 4.00313 27.3164 3.93412 27.9376L5.92188 28.1584ZM6.24245 26.3345L8.25845 16.7825L6.30156 16.3695L4.28555 25.9215L6.24245 26.3345ZM7.28 15.576H3.536V17.576H7.28V15.576ZM4.51486 16.7805L5.18686 13.5645L3.22914 13.1555L2.55714 16.3715L4.51486 16.7805ZM33.8529 16.432L32.8747 16.2242L32.6181 17.432H33.8529V16.432ZM34.1889 16.432V17.432H34.6031L34.896 17.1391L34.1889 16.432ZM36.3009 14.752L36.8399 15.5943L36.8478 15.5892L36.8556 15.584L36.3009 14.752ZM38.7009 13.552L38.3462 12.617L38.3462 12.617L38.7009 13.552ZM45.9489 14.32L45.327 15.1031L45.3342 15.1088L45.3414 15.1144L45.9489 14.32ZM47.4369 19.312L48.4217 19.4858L48.4233 19.4764L47.4369 19.312ZM47.1009 21.088L48.0795 21.294L48.0815 21.2841L47.1009 21.088ZM46.6689 22.96L45.6987 22.7175L45.6942 22.7356L45.6903 22.754L46.6689 22.96ZM46.3329 24.64L47.3105 24.8506L47.3133 24.8375L47.3157 24.8243L46.3329 24.64ZM44.3169 34V35H45.1244L45.2945 34.2106L44.3169 34ZM34.5729 34L33.5944 33.7938L33.3402 35H34.5729V34ZM37.2129 21.472L38.1914 21.6782L38.1971 21.6513L38.2012 21.6241L37.2129 21.472ZM37.4529 20.224L38.4273 20.4489L38.429 20.4412L38.4307 20.4335L37.4529 20.224ZM37.2129 17.872L36.3936 18.4455L36.4269 18.493L36.4655 18.5364L37.2129 17.872ZM34.4769 18.016L33.8694 17.2216L33.8577 17.2306L33.8463 17.2399L34.4769 18.016ZM33.2769 19.12L32.5336 18.451L32.3545 18.65L32.2988 18.9118L33.2769 19.12ZM30.1089 34V35H30.9184L31.087 34.2082L30.1089 34ZM20.3169 34L19.3385 33.7933L19.0835 35H20.3169V34ZM27.1329 1.744V0.743998H26.3221L26.1545 1.53725L27.1329 1.744ZM36.9729 1.744L37.9511 1.95178L38.2076 0.743998H36.9729V1.744ZM33.8529 17.432H34.1889V15.432H33.8529V17.432ZM34.896 17.1391C35.448 16.5871 36.0944 16.0714 36.8399 15.5943L35.7618 13.9097C34.9073 14.4566 34.1457 15.0609 33.4818 15.7249L34.896 17.1391ZM36.8556 15.584C37.4527 15.186 38.1825 14.8181 39.0555 14.487L38.3462 12.617C37.3632 12.9899 36.4931 13.422 35.7462 13.9199L36.8556 15.584ZM39.0555 14.487C39.8536 14.1843 40.7709 14.024 41.8209 14.024V12.024C40.5669 12.024 39.4042 12.2157 38.3462 12.617L39.0555 14.487ZM41.8209 14.024C43.3053 14.024 44.449 14.4059 45.327 15.1031L46.5708 13.5369C45.2728 12.5061 43.6644 12.024 41.8209 12.024V14.024ZM45.3414 15.1144C46.1614 15.7414 46.5809 16.5885 46.5809 17.776H48.5809C48.5809 16.0195 47.9124 14.5626 46.5563 13.5256L45.3414 15.1144ZM46.5809 17.776C46.5809 18.1553 46.54 18.6106 46.4505 19.1476L48.4233 19.4764C48.5258 18.8614 48.5809 18.2927 48.5809 17.776H46.5809ZM46.4521 19.1382C46.3576 19.6736 46.2471 20.258 46.1203 20.8919L48.0815 21.2841C48.2107 20.638 48.3241 20.0384 48.4217 19.4858L46.4521 19.1382ZM46.1223 20.882C45.9971 21.477 45.8559 22.0888 45.6987 22.7175L47.639 23.2025C47.8019 22.5512 47.9487 21.915 48.0794 21.294L46.1223 20.882ZM45.6903 22.754C45.5611 23.3679 45.4476 23.9352 45.35 24.4557L47.3157 24.8243C47.4102 24.3208 47.5207 23.7681 47.6474 23.166L45.6903 22.754ZM45.3553 24.4294L43.3393 33.7894L45.2945 34.2106L47.3105 24.8506L45.3553 24.4294ZM44.3169 33H34.5729V35H44.3169V33ZM35.5514 34.2062L38.1914 21.6782L36.2344 21.2658L33.5944 33.7938L35.5514 34.2062ZM38.2012 21.6241C38.2614 21.2328 38.3367 20.8411 38.4273 20.4489L36.4785 19.9991C36.377 20.4389 36.2923 20.8792 36.2245 21.3199L38.2012 21.6241ZM38.4307 20.4335C38.5373 19.9361 38.5969 19.4638 38.5969 19.024H36.5969C36.5969 19.2882 36.5605 19.6159 36.4751 20.0145L38.4307 20.4335ZM38.5969 19.024C38.5969 18.3616 38.4162 17.7206 37.9603 17.2076L36.4655 18.5364C36.5215 18.5994 36.5969 18.7264 36.5969 19.024H38.5969ZM38.0321 17.2985C37.5773 16.6488 36.8788 16.392 36.1569 16.392V18.392C36.2877 18.392 36.3484 18.4139 36.3671 18.4224C36.3762 18.4265 36.3796 18.4293 36.3807 18.4302C36.3818 18.4312 36.3863 18.435 36.3936 18.4455L38.0321 17.2985ZM36.1569 16.392C35.322 16.392 34.5538 16.6983 33.8694 17.2216L35.0843 18.8104C35.488 18.5017 35.8398 18.392 36.1569 18.392V16.392ZM33.8463 17.2399C33.3128 17.6733 32.8694 18.0779 32.5336 18.451L34.0202 19.789C34.2603 19.5221 34.617 19.1907 35.1075 18.7921L33.8463 17.2399ZM32.2988 18.9118L29.1308 33.7918L31.087 34.2082L34.255 19.3282L32.2988 18.9118ZM30.1089 33H20.3169V35H30.1089V33ZM21.2953 34.2067L28.1113 1.95074L26.1545 1.53725L19.3385 33.7933L21.2953 34.2067ZM27.1329 2.744H36.9729V0.743998H27.1329V2.744ZM35.9947 1.53622L32.8747 16.2242L34.8311 16.6398L37.9511 1.95178L35.9947 1.53622ZM59.3859 24.352V23.352H58.5513L58.402 24.1731L59.3859 24.352ZM59.0979 26.368L58.1028 26.2685L58.1004 26.2932L58.0991 26.3181L59.0979 26.368ZM59.2899 30.064L58.332 30.3513L58.3503 30.4121L58.3761 30.4701L59.2899 30.064ZM59.7699 30.832L59.0106 31.4828L59.0607 31.5412L59.1191 31.5913L59.7699 30.832ZM61.6419 30.832L61.1947 29.9376L61.1787 29.9456L61.163 29.9541L61.6419 30.832ZM62.7459 30.016L62.0702 29.2788L62.0541 29.2935L62.0388 29.3089L62.7459 30.016ZM63.8019 28.72L62.9778 28.1535L62.9655 28.1715L62.9539 28.19L63.8019 28.72ZM64.6179 26.992V25.992H63.8738L63.66 26.7047L64.6179 26.992ZM72.4899 26.992L73.4616 27.2281L73.762 25.992H72.4899V26.992ZM71.2419 32.128L71.7869 32.9664L72.1198 32.75L72.2136 32.3641L71.2419 32.128ZM69.0339 33.184L69.361 34.129L69.361 34.129L69.0339 33.184ZM66.3939 33.904L66.5638 34.8895L66.5802 34.8866L66.5965 34.8833L66.3939 33.904ZM63.5619 34.24L63.4954 33.2422L63.4788 33.2433L63.4624 33.245L63.5619 34.24ZM56.3619 33.952L56.157 34.9308L56.157 34.9308L56.3619 33.952ZM52.7619 32.464L53.3284 31.64L53.3284 31.64L52.7619 32.464ZM50.3139 29.68L49.4146 30.1175L49.4218 30.1322L49.4295 30.1468L50.3139 29.68ZM50.1699 20.704L49.2232 20.3817L49.2201 20.3908L49.2172 20.4L50.1699 20.704ZM52.6659 16.72L51.9588 16.0129L51.9588 16.0129L52.6659 16.72ZM57.3699 13.888L57.0355 12.9456L57.0306 12.9473L57.3699 13.888ZM71.9619 14.32L71.4349 15.1699L71.4425 15.1745L71.9619 14.32ZM74.0259 21.808L74.9942 22.0579L74.996 22.0505L74.0259 21.808ZM72.8739 24.352V25.352H73.3831L73.6826 24.9402L72.8739 24.352ZM62.6979 16.624L63.3076 17.4167L63.3157 17.4103L62.6979 16.624ZM61.5459 17.968L62.3854 18.5113L62.3924 18.5004L62.3992 18.4894L61.5459 17.968ZM60.5859 19.888L61.5114 20.2666L61.5143 20.2595L61.5171 20.2524L60.5859 19.888ZM59.8659 22.144L58.8935 21.9106L58.5975 23.144H59.8659V22.144ZM65.3379 22.144V23.144H66.185L66.3243 22.3084L65.3379 22.144ZM65.5299 20.944L64.546 20.7651L64.5436 20.7785L64.5415 20.7919L65.5299 20.944ZM65.6739 19.792L64.6855 19.6399L64.6797 19.6775L64.6768 19.7153L65.6739 19.792ZM58.402 24.1731C58.2697 24.9005 58.1698 25.5991 58.1028 26.2685L60.0929 26.4675C60.154 25.8569 60.246 25.2115 60.3697 24.5309L58.402 24.1731ZM58.0991 26.3181C58.0665 26.9708 58.0499 27.5638 58.0499 28.096H60.0499C60.0499 27.6042 60.0653 27.0452 60.0966 26.4179L58.0991 26.3181ZM58.0499 28.096C58.0499 28.4201 58.0678 28.7709 58.102 29.1465L60.0938 28.9655C60.0639 28.6371 60.0499 28.3479 60.0499 28.096H58.0499ZM58.102 29.1465C58.1397 29.5614 58.2157 29.9636 58.332 30.3513L60.2477 29.7767C60.172 29.5244 60.1201 29.2546 60.0938 28.9655L58.102 29.1465ZM58.3761 30.4701C58.5408 30.8407 58.7513 31.1803 59.0106 31.4828L60.5291 30.1812C60.4044 30.0357 60.295 29.8633 60.2037 29.6579L58.3761 30.4701ZM59.1191 31.5913C59.5732 31.9805 60.1325 32.12 60.6819 32.12V30.12C60.5718 30.12 60.504 30.1061 60.467 30.0944C60.433 30.0837 60.4224 30.0742 60.4207 30.0727L59.1191 31.5913ZM60.6819 32.12C61.19 32.12 61.6764 31.9522 62.1207 31.7099L61.163 29.9541C60.9033 30.0958 60.7498 30.12 60.6819 30.12V32.12ZM62.0891 31.7264C62.5832 31.4794 63.0369 31.1392 63.453 30.7231L62.0388 29.3089C61.7509 29.5968 61.4686 29.8006 61.1947 29.9376L62.0891 31.7264ZM63.4216 30.7532C63.8817 30.3314 64.2895 29.8267 64.6499 29.25L62.9539 28.19C62.6743 28.6373 62.3781 28.9966 62.0702 29.2788L63.4216 30.7532ZM64.6259 29.2865C65.041 28.6828 65.3561 28.0113 65.5757 27.2793L63.66 26.7047C63.4956 27.2527 63.2667 27.7332 62.9778 28.1535L64.6259 29.2865ZM64.6179 27.992H72.4899V25.992H64.6179V27.992ZM71.5182 26.7559L70.2702 31.8919L72.2136 32.3641L73.4616 27.2281L71.5182 26.7559ZM70.6969 31.2896C70.1344 31.6552 69.4735 31.9736 68.7068 32.239L69.361 34.129C70.2582 33.8184 71.0694 33.4328 71.7869 32.9664L70.6969 31.2896ZM68.7068 32.239C67.9184 32.5119 67.0802 32.7408 66.1913 32.9247L66.5965 34.8833C67.5635 34.6832 68.4853 34.4321 69.361 34.129L68.7068 32.239ZM66.224 32.9185C65.3309 33.0725 64.4215 33.1805 63.4954 33.2422L63.6284 35.2378C64.6223 35.1715 65.6008 35.0555 66.5638 34.8895L66.224 32.9185ZM63.4624 33.245C62.5317 33.338 61.6531 33.384 60.8259 33.384V35.384C61.7267 35.384 62.6721 35.334 63.6614 35.235L63.4624 33.245ZM60.8259 33.384C59.2855 33.384 57.8669 33.2453 56.5667 32.9732L56.157 34.9308C57.6089 35.2347 59.1663 35.384 60.8259 35.384V33.384ZM56.5667 32.9732C55.3034 32.7088 54.2299 32.2597 53.3284 31.64L52.1953 33.288C53.3419 34.0763 54.6684 34.6192 56.157 34.9308L56.5667 32.9732ZM53.3284 31.64C52.4442 31.0321 51.7345 30.2293 51.1983 29.2132L49.4295 30.1468C50.1092 31.4347 51.0316 32.4879 52.1953 33.288L53.3284 31.64ZM51.2131 29.2425C50.7208 28.2305 50.4499 26.9339 50.4499 25.312H48.4499C48.4499 27.1461 48.755 28.7615 49.4146 30.1175L51.2131 29.2425ZM50.4499 25.312C50.4499 23.8479 50.6737 22.4144 51.1225 21.008L49.2172 20.4C48.7061 22.0016 48.4499 23.6401 48.4499 25.312H50.4499ZM51.1165 21.0263C51.5779 19.671 52.3264 18.4737 53.373 17.4271L51.9588 16.0129C50.7014 17.2703 49.7858 18.729 49.2232 20.3817L51.1165 21.0263ZM53.373 17.4271C54.4312 16.3689 55.8632 15.4945 57.7091 14.8287L57.0306 12.9473C54.9726 13.6895 53.2685 14.7031 51.9588 16.0129L53.373 17.4271ZM57.7043 14.8304C59.5475 14.1764 61.8899 13.832 64.7619 13.832V11.832C61.7458 11.832 59.1603 12.1916 57.0355 12.9456L57.7043 14.8304ZM64.7619 13.832C67.891 13.832 70.0687 14.3228 71.4349 15.1699L72.4888 13.4701C70.655 12.3332 68.0328 11.832 64.7619 11.832V13.832ZM71.4425 15.1745C72.74 15.9632 73.4099 17.1689 73.4099 18.976H75.4099C75.4099 16.5591 74.4477 14.6608 72.4813 13.4655L71.4425 15.1745ZM73.4099 18.976C73.4099 19.7426 73.2961 20.604 73.0557 21.5655L74.996 22.0505C75.2676 20.964 75.4099 19.9374 75.4099 18.976H73.4099ZM73.0576 21.5581C72.8276 22.4495 72.4913 23.1778 72.0651 23.7638L73.6826 24.9402C74.2804 24.1182 74.7122 23.1505 74.9942 22.0579L73.0576 21.5581ZM72.8739 23.352H59.3859V25.352H72.8739V23.352ZM66.7699 18.64C66.7699 18.0967 66.7267 17.5972 66.6227 17.1604C66.5201 16.7294 66.3433 16.2962 66.0298 15.9513L64.5499 17.2967C64.5564 17.3038 64.6197 17.3826 64.6771 17.6236C64.7331 17.8588 64.7699 18.1913 64.7699 18.64H66.7699ZM66.0298 15.9513C65.5335 15.4054 64.8867 15.096 64.1379 15.096V17.096C64.2851 17.096 64.4062 17.1386 64.5499 17.2967L66.0298 15.9513ZM64.1379 15.096C63.3765 15.096 62.6832 15.3638 62.0801 15.8377L63.3157 17.4103C63.6085 17.1802 63.8753 17.096 64.1379 17.096V15.096ZM62.0882 15.8314C61.5517 16.2441 61.0911 16.7945 60.6926 17.4465L62.3992 18.4894C62.7047 17.9895 63.0121 17.6439 63.3076 17.4166L62.0882 15.8314ZM60.7063 17.4247C60.3109 18.0358 59.962 18.7382 59.6546 19.5236L61.5171 20.2524C61.7858 19.5658 62.0769 18.9882 62.3854 18.5113L60.7063 17.4247ZM59.6603 19.5094C59.3515 20.2642 59.0964 21.0651 58.8935 21.9106L60.8383 22.3774C61.0193 21.6229 61.2442 20.9198 61.5114 20.2666L59.6603 19.5094ZM59.8659 23.144H65.3379V21.144H59.8659V23.144ZM66.3243 22.3084C66.389 21.92 66.4537 21.5158 66.5182 21.0961L64.5415 20.7919C64.4781 21.2042 64.4147 21.6 64.3515 21.9796L66.3243 22.3084ZM66.5137 21.1229C66.5848 20.7321 66.6367 20.3135 66.6709 19.8687L64.6768 19.7153C64.647 20.1025 64.6029 20.4519 64.546 20.7651L66.5137 21.1229ZM66.6622 19.9441C66.7325 19.4872 66.7699 19.0516 66.7699 18.64H64.7699C64.7699 18.9324 64.7432 19.2648 64.6855 19.6399L66.6622 19.9441ZM82.4679 34V35H82.9918L83.2901 34.5692L82.4679 34ZM74.6919 34L73.7135 33.7933L73.4585 35H74.6919V34ZM81.5079 1.744V0.743998H80.6971L80.5295 1.53725L81.5079 1.744ZM91.3479 1.744L92.3261 1.95178L92.5826 0.743998H91.3479V1.744ZM88.2279 16.432L87.2497 16.2242L86.9931 17.432H88.2279V16.432ZM88.5639 16.432V17.432H89.0199L89.3189 17.0877L88.5639 16.432ZM92.1159 13.84L92.4794 14.7717L92.4911 14.7669L92.1159 13.84ZM98.8839 13.552L98.4524 14.4541L98.4756 14.4652L98.4993 14.4751L98.8839 13.552ZM100.708 14.896L101.497 14.2821L101.497 14.2821L100.708 14.896ZM101.668 16.96L102.64 16.7266L102.64 16.7266L101.668 16.96ZM101.86 21.52L102.857 21.5912L102.857 21.5912L101.86 21.52ZM101.428 24.544L102.407 24.7457L102.408 24.7401L101.428 24.544ZM100.468 27.952L101.408 28.2917L101.411 28.2835L100.468 27.952ZM98.7879 31.12L97.9815 30.5286L97.975 30.5375L97.9686 30.5465L98.7879 31.12ZM96.1959 33.472L95.6969 32.6053L95.6853 32.6121L96.1959 33.472ZM89.9559 34.096L89.7225 35.0684L89.731 35.0704L89.9559 34.096ZM87.7479 33.328L87.3007 34.2224L87.3093 34.2267L87.3179 34.2309L87.7479 33.328ZM86.0199 32.224L85.3376 32.9551L85.3626 32.9785L85.3893 33.0001L86.0199 32.224ZM84.9639 30.88L85.8583 30.4328L85.5819 29.88H84.9639V30.88ZM84.6279 30.88V29.88H84.1039L83.8057 30.3108L84.6279 30.88ZM89.8119 28.528L90.6541 29.0671L90.6589 29.0596L90.6635 29.0521L89.8119 28.528ZM91.0599 25.648L92.0193 25.9302L92.0214 25.9227L91.0599 25.648ZM91.7319 22.336L90.7419 22.1946L90.7402 22.2068L90.7387 22.2192L91.7319 22.336ZM91.6359 18.256L90.7279 18.6751L90.7408 18.703L90.7554 18.7301L91.6359 18.256ZM88.7559 18.352L89.3916 19.1239L89.4047 19.1131L89.4175 19.1018L88.7559 18.352ZM87.5559 19.504L86.775 18.8793L86.6287 19.0622L86.5788 19.2911L87.5559 19.504ZM85.6839 28.096L84.7068 27.8831L84.6239 28.2636L84.8201 28.5999L85.6839 28.096ZM86.5479 29.2L85.8408 29.9071L85.8561 29.9225L85.8722 29.9372L86.5479 29.2ZM82.4679 33H74.6919V35H82.4679V33ZM75.6703 34.2067L82.4863 1.95074L80.5295 1.53725L73.7135 33.7933L75.6703 34.2067ZM81.5079 2.744H91.3479V0.743998H81.5079V2.744ZM90.3697 1.53622L87.2497 16.2242L89.2061 16.6398L92.3261 1.95178L90.3697 1.53622ZM88.2279 17.432H88.5639V15.432H88.2279V17.432ZM89.3189 17.0877C90.2841 15.9763 91.3388 15.2167 92.4794 14.7716L91.7523 12.9084C90.269 13.4873 88.9557 14.4557 87.8088 15.7763L89.3189 17.0877ZM92.4911 14.7669C93.7284 14.2661 94.9294 14.024 96.0999 14.024V12.024C94.6464 12.024 93.1913 12.3259 91.7407 12.9131L92.4911 14.7669ZM96.0999 14.024C97.1231 14.024 97.8916 14.1859 98.4524 14.4541L99.3153 12.6499C98.4041 12.2141 97.3167 12.024 96.0999 12.024V14.024ZM98.4993 14.4751C99.1306 14.7381 99.5906 15.0883 99.9185 15.5099L101.497 14.2821C100.929 13.5517 100.173 13.0059 99.2685 12.6289L98.4993 14.4751ZM99.9185 15.5099C100.269 15.96 100.532 16.5141 100.695 17.1934L102.64 16.7266C102.419 15.8059 102.043 14.984 101.497 14.2821L99.9185 15.5099ZM100.695 17.1934C100.868 17.9105 100.956 18.6797 100.956 19.504H102.956C102.956 18.5363 102.852 17.6095 102.64 16.7266L100.695 17.1934ZM100.956 19.504C100.956 19.915 100.926 20.5579 100.862 21.4488L102.857 21.5912C102.922 20.6901 102.956 19.989 102.956 19.504H100.956ZM100.862 21.4488C100.802 22.2934 100.665 23.2586 100.447 24.3479L102.408 24.7401C102.639 23.5894 102.79 22.5386 102.857 21.5912L100.862 21.4488ZM100.448 24.3423C100.235 25.3811 99.9274 26.4736 99.5244 27.6205L101.411 28.2835C101.84 27.0624 102.173 25.8829 102.407 24.7457L100.448 24.3423ZM99.5273 27.6124C99.1428 28.6771 98.6273 29.6479 97.9815 30.5286L99.5943 31.7114C100.356 30.6721 100.961 29.5309 101.408 28.2916L99.5273 27.6124ZM97.9686 30.5465C97.384 31.3817 96.6312 32.0675 95.6969 32.6054L96.6948 34.3386C97.8726 33.6605 98.8477 32.7783 99.6071 31.6935L97.9686 30.5465ZM95.6853 32.6121C94.8453 33.1109 93.7978 33.384 92.4999 33.384V35.384C94.0819 35.384 95.4985 35.0491 96.7064 34.3319L95.6853 32.6121ZM92.4999 33.384C91.7107 33.384 90.9381 33.2964 90.1807 33.1216L89.731 35.0704C90.6376 35.2796 91.5611 35.384 92.4999 35.384V33.384ZM90.1892 33.1236C89.45 32.9462 88.7807 32.7122 88.1778 32.4251L87.3179 34.2309C88.0591 34.5838 88.8617 34.8618 89.7225 35.0684L90.1892 33.1236ZM88.1951 32.4336C87.6149 32.1435 87.1013 31.8142 86.6505 31.4479L85.3893 33.0001C85.9625 33.4658 86.6009 33.8725 87.3007 34.2224L88.1951 32.4336ZM86.7022 31.4929C86.2836 31.1023 86.0154 30.7469 85.8583 30.4328L84.0694 31.3272C84.3604 31.9091 84.7961 32.4497 85.3376 32.9551L86.7022 31.4929ZM84.9639 29.88H84.6279V31.88H84.9639V29.88ZM83.8057 30.3108L81.6457 33.4308L83.2901 34.5692L85.4501 31.4492L83.8057 30.3108ZM87.8919 30.728C89.0841 30.728 90.0082 30.0763 90.6541 29.0671L88.9696 27.9889C88.5915 28.5797 88.2356 28.728 87.8919 28.728V30.728ZM90.6635 29.0521C91.2288 28.1336 91.6781 27.0899 92.0192 25.9302L90.1005 25.3658C89.8016 26.3821 89.419 27.2584 88.9602 28.0039L90.6635 29.0521ZM92.0214 25.9227C92.3552 24.7543 92.5904 23.5975 92.725 22.4528L90.7387 22.2192C90.6174 23.2505 90.4045 24.3017 90.0984 25.3733L92.0214 25.9227ZM92.7218 22.4774C92.883 21.3493 92.9719 20.4588 92.9719 19.84H90.9719C90.9719 20.3092 90.9008 21.0827 90.7419 22.1946L92.7218 22.4774ZM92.9719 19.84C92.9719 19.0906 92.8417 18.3861 92.5163 17.7819L90.7554 18.7301C90.8781 18.9579 90.9719 19.3094 90.9719 19.84H92.9719ZM92.5438 17.8369C92.3677 17.4554 92.09 17.1334 91.7079 16.9174C91.3367 16.7076 90.928 16.632 90.5319 16.632V18.632C90.6049 18.632 90.6542 18.639 90.6845 18.646C90.6995 18.6494 90.7095 18.6527 90.7155 18.655C90.7185 18.6561 90.7206 18.657 90.7219 18.6576C90.7232 18.6582 90.7238 18.6586 90.7238 18.6586C90.7238 18.6586 90.7234 18.6583 90.7226 18.6578C90.7218 18.6573 90.7208 18.6565 90.7198 18.6557C90.7174 18.6538 90.7156 18.652 90.7146 18.6509C90.7121 18.648 90.7179 18.6533 90.7279 18.6751L92.5438 17.8369ZM90.5319 16.632C89.6155 16.632 88.7949 16.984 88.0943 17.6022L89.4175 19.1018C89.8049 18.76 90.1682 18.632 90.5319 18.632V16.632ZM88.1202 17.5801C87.555 18.0455 87.0942 18.4804 86.775 18.8793L88.3367 20.1287C88.5296 19.8876 88.8687 19.5545 89.3916 19.1239L88.1202 17.5801ZM86.5788 19.2911L84.7068 27.8831L86.661 28.3089L88.533 19.7169L86.5788 19.2911ZM84.8201 28.5999C85.0922 29.0663 85.4352 29.5015 85.8408 29.9071L87.255 28.4929C86.9566 28.1945 86.7236 27.8937 86.5477 27.5921L84.8201 28.5999ZM85.8722 29.9372C86.437 30.455 87.1249 30.728 87.8919 30.728V28.728C87.6349 28.728 87.4267 28.649 87.2236 28.4628L85.8722 29.9372ZM112.562 34V35H113.372L113.54 34.2081L112.562 34ZM102.77 34L101.792 33.7933L101.537 35H102.77V34ZM109.586 1.744V0.743998H108.775L108.608 1.53725L109.586 1.744ZM119.426 1.744L120.404 1.95213L120.661 0.743998H119.426V1.744ZM112.562 33H102.77V35H112.562V33ZM103.748 34.2067L110.564 1.95074L108.608 1.53725L101.792 33.7933L103.748 34.2067ZM109.586 2.744H119.426V0.743998H109.586V2.744ZM118.448 1.53586L111.584 33.7919L113.54 34.2081L120.404 1.95213L118.448 1.53586ZM140.737 14.848L140.123 15.6374L140.125 15.6396L140.737 14.848ZM142.465 27.328L143.387 27.7152L143.389 27.7087L142.465 27.328ZM139.633 31.312L140.277 32.0769L140.282 32.072L140.288 32.067L139.633 31.312ZM120.625 32.128L121.288 31.3798L121.282 31.3747L121.276 31.3697L120.625 32.128ZM119.137 19.408L118.245 18.9541L118.242 18.9608L118.239 18.9676L119.137 19.408ZM122.833 15.184L122.275 14.3537L122.267 14.3592L122.259 14.3648L122.833 15.184ZM131.233 29.776L130.405 29.2145L130.398 29.2248L130.391 29.2352L131.233 29.776ZM132.673 26.512L133.637 26.7772L133.638 26.7711L132.673 26.512ZM133.441 22.48L132.45 22.3449L132.448 22.3547L132.447 22.3645L133.441 22.48ZM133.441 16.816L132.492 17.1322L132.505 17.1717L132.521 17.2099L133.441 16.816ZM130.081 17.488L129.257 16.9203L129.251 16.93L129.244 16.94L130.081 17.488ZM128.593 20.8L129.55 21.0873L129.55 21.0873L128.593 20.8ZM127.729 24.736L126.739 24.5946L126.737 24.6062L126.736 24.6178L127.729 24.736ZM132.433 13.832C136.166 13.832 138.659 14.4989 140.123 15.6374L141.35 14.0586C139.358 12.5091 136.315 11.832 132.433 11.832V13.832ZM140.125 15.6396C141.613 16.7882 142.473 18.7657 142.473 21.856H144.473C144.473 18.4183 143.508 15.7238 141.348 14.0564L140.125 15.6396ZM142.473 21.856C142.473 23.7598 142.156 25.452 141.54 26.9473L143.389 27.7087C144.117 25.94 144.473 23.9842 144.473 21.856H142.473ZM141.543 26.9408C140.925 28.4106 140.068 29.6092 138.977 30.557L140.288 32.067C141.629 30.9028 142.66 29.4454 143.386 27.7152L141.543 26.9408ZM138.988 30.5471C136.803 32.3878 133.548 33.384 129.073 33.384V35.384C133.813 35.384 137.598 34.3322 140.277 32.0769L138.988 30.5471ZM129.073 33.384C125.217 33.384 122.707 32.6383 121.288 31.3798L119.961 32.8762C121.934 34.6257 125.056 35.384 129.073 35.384V33.384ZM121.276 31.3697C119.736 30.0456 118.889 28.0111 118.889 25.072H116.889C116.889 28.4049 117.865 31.0744 119.973 32.8863L121.276 31.3697ZM118.889 25.072C118.889 23.129 119.276 21.394 120.034 19.8484L118.239 18.9676C117.333 20.814 116.889 22.855 116.889 25.072H118.889ZM120.028 19.8619C120.815 18.3158 121.937 17.0319 123.406 16.0032L122.259 14.3648C120.528 15.5761 119.186 17.1082 118.245 18.9541L120.028 19.8619ZM123.39 16.0143C125.503 14.596 128.483 13.832 132.433 13.832V11.832C128.254 11.832 124.834 12.636 122.275 14.3537L123.39 16.0143ZM129.169 32.12C130.418 32.12 131.382 31.3931 132.074 30.3168L130.391 29.2352C129.931 29.9509 129.519 30.12 129.169 30.12V32.12ZM132.06 30.3375C132.742 29.3331 133.262 28.1398 133.637 26.7772L131.708 26.2468C131.379 27.4442 130.939 28.4269 130.405 29.2145L132.06 30.3375ZM133.638 26.7711C134.003 25.4111 134.268 24.019 134.434 22.5955L132.447 22.3645C132.293 23.693 132.046 24.9889 131.707 26.2529L133.638 26.7711ZM134.431 22.6151C134.627 21.1781 134.729 19.9147 134.729 18.832H132.729C132.729 19.7973 132.638 20.9659 132.45 22.3449L134.431 22.6151ZM134.729 18.832C134.729 17.8951 134.633 17.0591 134.36 16.4221L132.521 17.2099C132.632 17.4689 132.729 17.9769 132.729 18.832H134.729ZM134.389 16.4998C134.249 16.0796 133.992 15.7 133.591 15.4384C133.201 15.1841 132.759 15.096 132.337 15.096V17.096C132.49 17.096 132.52 17.1279 132.498 17.1136C132.488 17.1068 132.479 17.0978 132.475 17.0924C132.472 17.0883 132.48 17.0978 132.492 17.1322L134.389 16.4998ZM132.337 15.096C131.046 15.096 130.021 15.8131 129.257 16.9203L130.904 18.0557C131.42 17.3069 131.899 17.096 132.337 17.096V15.096ZM129.244 16.94C128.574 17.9631 128.041 19.1586 127.635 20.5127L129.55 21.0873C129.912 19.8814 130.371 18.8689 130.917 18.036L129.244 16.94ZM127.635 20.5127C127.236 21.8412 126.937 23.202 126.739 24.5946L128.718 24.8774C128.904 23.582 129.181 22.3188 129.55 21.0873L127.635 20.5127ZM126.736 24.6178C126.573 25.98 126.489 27.1118 126.489 28H128.489C128.489 27.2242 128.564 26.18 128.721 24.8542L126.736 24.6178ZM126.489 28C126.489 29.0971 126.631 30.076 127.028 30.8141C127.235 31.1981 127.521 31.5365 127.907 31.7753C128.296 32.0157 128.728 32.12 129.169 32.12V30.12C129.049 30.12 128.991 30.0943 128.96 30.0747C128.926 30.0535 128.862 30.0019 128.789 29.8659C128.626 29.564 128.489 28.9829 128.489 28H126.489ZM164.506 13.36V12.36H163.982L163.684 12.7908L164.506 13.36ZM172.282 13.36L173.26 13.5663L173.515 12.36H172.282V13.36ZM168.346 32.032L167.367 31.8257L167.365 31.8359L168.346 32.032ZM166.906 36.016L167.781 36.4997L167.781 36.4997L166.906 36.016ZM164.074 39.184L163.481 38.3789L163.47 38.3866L164.074 39.184ZM159.562 41.296L159.292 40.3332L159.287 40.3345L159.562 41.296ZM151.258 42.016L151.305 41.0171L151.282 41.016H151.258V42.016ZM149.194 41.968L149.239 40.969L149.217 40.968H149.194V41.968ZM147.178 41.92L147.228 40.9212L147.178 41.92ZM145.642 41.824L144.675 41.5688L144.371 42.7215L145.559 42.8205L145.642 41.824ZM146.554 38.368L146.708 37.38L145.817 37.2407L145.587 38.1128L146.554 38.368ZM149.674 38.608L149.703 37.6084L149.689 37.608H149.674V38.608ZM154.858 38.368L154.626 37.3952L154.598 37.4019L154.571 37.4102L154.858 38.368ZM156.49 37.552L155.839 36.7927L155.825 36.8047L155.812 36.8172L156.49 37.552ZM157.546 36.016L156.634 35.6056L156.625 35.6249L156.617 35.6446L157.546 36.016ZM158.218 33.664L157.234 33.4824L157.232 33.4941L158.218 33.664ZM158.794 30.544L159.777 30.7255L159.995 29.544H158.794V30.544ZM158.458 30.544V29.544H157.923L157.626 29.9893L158.458 30.544ZM157.594 31.6L156.859 30.9217L156.857 30.9243L157.594 31.6ZM156.202 32.752L156.723 33.6053L156.74 33.595L156.757 33.5841L156.202 32.752ZM154.138 33.664L154.418 34.624L154.43 34.6204L154.443 34.6164L154.138 33.664ZM148.618 33.52L148.201 34.4291L148.224 34.4393L148.246 34.4485L148.618 33.52ZM146.746 32.128L145.961 32.7476L145.969 32.758L145.978 32.7682L146.746 32.128ZM145.69 30.016L144.724 30.276L144.727 30.2856L145.69 30.016ZM145.45 25.408L146.447 25.4819L146.447 25.4819L145.45 25.408ZM145.882 22.48L144.908 22.251L144.905 22.2646L144.902 22.2783L145.882 22.48ZM146.938 19.168L146.015 18.7834L146.012 18.79L146.009 18.7966L146.938 19.168ZM148.81 16.048L148.052 15.3951L148.046 15.4027L148.039 15.4104L148.81 16.048ZM151.738 13.744L151.281 12.8544L151.271 12.8596L151.738 13.744ZM157.69 12.976L157.534 13.9638L157.534 13.9638L157.69 12.976ZM159.466 13.504L159.06 14.4178L159.06 14.4178L159.466 13.504ZM161.002 14.608L160.271 15.2903L160.271 15.2903L161.002 14.608ZM162.058 16.48L161.109 16.7962L161.337 17.48H162.058V16.48ZM162.346 16.48V17.48H162.87L163.168 17.0492L162.346 16.48ZM157.21 18.784L158.052 19.3231L158.057 19.3156L158.062 19.3081L157.21 18.784ZM155.962 21.616L155.003 21.3338L155.003 21.3338L155.962 21.616ZM155.242 24.88L154.253 24.7345L154.251 24.7471L154.249 24.7597L155.242 24.88ZM155.338 28.864L154.419 29.2579L154.436 29.2989L154.457 29.3381L155.338 28.864ZM157.402 29.248L156.955 28.3536L156.935 28.3633L156.916 28.3738L157.402 29.248ZM158.266 28.72L158.866 29.52L158.873 29.5147L158.88 29.5094L158.266 28.72ZM158.986 28.048L158.279 27.3409L158.252 27.368L158.227 27.3972L158.986 28.048ZM159.466 27.52L160.266 28.12L160.399 27.9431L160.444 27.7269L159.466 27.52ZM161.242 19.12L162.22 19.3269L162.312 18.8916L162.051 18.5318L161.242 19.12ZM160.33 18.064L159.59 18.7367L159.606 18.7543L159.623 18.7711L160.33 18.064ZM164.506 14.36H172.282V12.36H164.506V14.36ZM171.303 13.1537L167.367 31.8257L169.324 32.2383L173.26 13.5663L171.303 13.1537ZM167.365 31.8359C167.096 33.1809 166.65 34.4112 166.031 35.5323L167.781 36.4997C168.506 35.1888 169.019 33.7631 169.326 32.2281L167.365 31.8359ZM166.031 35.5323C165.434 36.6114 164.591 37.5609 163.481 38.3789L164.667 39.9891C165.989 39.0151 167.033 37.8526 167.781 36.4997L166.031 35.5323ZM163.47 38.3866C162.409 39.1895 161.027 39.8461 159.292 40.3332L159.832 42.2588C161.745 41.7219 163.37 40.9705 164.677 39.9814L163.47 38.3866ZM159.287 40.3345C157.612 40.8132 155.518 41.064 152.986 41.064V43.064C155.637 43.064 157.928 42.8028 159.837 42.2575L159.287 40.3345ZM152.986 41.064C152.527 41.064 151.967 41.0487 151.305 41.0171L151.21 43.0149C151.892 43.0473 152.485 43.064 152.986 43.064V41.064ZM151.258 41.016C150.602 41.016 149.929 41.0004 149.239 40.969L149.148 42.967C149.867 42.9996 150.57 43.016 151.258 43.016V41.016ZM149.194 40.968C148.505 40.968 147.85 40.9523 147.228 40.9212L147.128 42.9188C147.786 42.9517 148.475 42.968 149.194 42.968V40.968ZM147.228 40.9212C146.593 40.8895 146.093 40.8581 145.725 40.8275L145.559 42.8205C145.959 42.8539 146.483 42.8865 147.128 42.9188L147.228 40.9212ZM146.609 42.0792L147.521 38.6232L145.587 38.1128L144.675 41.5688L146.609 42.0792ZM146.399 39.356C147.476 39.5241 148.567 39.608 149.674 39.608V37.608C148.669 37.608 147.68 37.5319 146.708 37.38L146.399 39.356ZM149.644 39.6076C150.739 39.6397 151.677 39.656 152.458 39.656V37.656C151.703 37.656 150.785 37.6403 149.703 37.6084L149.644 39.6076ZM152.458 39.656C153.477 39.656 154.381 39.5551 155.145 39.3258L154.571 37.4102C154.055 37.5649 153.359 37.656 152.458 37.656V39.656ZM155.089 39.3408C155.892 39.1498 156.601 38.8102 157.168 38.2868L155.812 36.8172C155.547 37.0618 155.168 37.2662 154.626 37.3952L155.089 39.3408ZM157.141 38.3113C157.73 37.8059 158.169 37.152 158.474 36.3874L156.617 35.6446C156.411 36.16 156.146 36.5301 155.839 36.7927L157.141 38.3113ZM158.458 36.4264C158.79 35.6886 159.034 34.8186 159.203 33.8339L157.232 33.4941C157.082 34.3654 156.878 35.0634 156.634 35.6056L158.458 36.4264ZM159.201 33.8455L159.777 30.7255L157.81 30.3625L157.234 33.4825L159.201 33.8455ZM158.794 29.544H158.458V31.544H158.794V29.544ZM157.626 29.9893C157.475 30.215 157.227 30.5234 156.859 30.9217L158.329 32.2783C158.729 31.8446 159.056 31.449 159.29 31.0987L157.626 29.9893ZM156.857 30.9243C156.573 31.2333 156.177 31.5669 155.647 31.9199L156.757 33.5841C157.379 33.1691 157.91 32.7347 158.331 32.2757L156.857 30.9243ZM155.68 31.8987C155.187 32.2005 154.575 32.4742 153.833 32.7116L154.443 34.6164C155.301 34.3418 156.065 34.0075 156.723 33.6053L155.68 31.8987ZM153.858 32.704C153.2 32.896 152.417 33 151.498 33V35C152.563 35 153.54 34.88 154.418 34.624L153.858 32.704ZM151.498 33C150.469 33 149.642 32.8524 148.989 32.5915L148.246 34.4485C149.194 34.8276 150.287 35 151.498 35V33ZM149.035 32.6109C148.385 32.3132 147.887 31.9353 147.514 31.4878L145.978 32.7682C146.565 33.4727 147.315 34.0228 148.201 34.4291L149.035 32.6109ZM147.531 31.5084C147.138 31.0115 146.844 30.4284 146.653 29.7464L144.727 30.2856C144.984 31.2036 145.393 32.0285 145.961 32.7476L147.531 31.5084ZM146.655 29.756C146.457 29.0178 146.354 28.2101 146.354 27.328H144.354C144.354 28.3659 144.475 29.3502 144.724 30.276L146.655 29.756ZM146.354 27.328C146.354 26.9509 146.383 26.3416 146.447 25.4819L144.453 25.3341C144.388 26.2024 144.354 26.8731 144.354 27.328H146.354ZM146.447 25.4819C146.507 24.6708 146.644 23.7386 146.861 22.6817L144.902 22.2783C144.672 23.3974 144.521 24.4172 144.453 25.3341L146.447 25.4819ZM146.855 22.709C147.099 21.6732 147.435 20.6167 147.866 19.5394L146.009 18.7966C145.544 19.9593 145.177 21.1108 144.908 22.251L146.855 22.709ZM147.861 19.5526C148.304 18.4887 148.878 17.5346 149.58 16.6856L148.039 15.4104C147.206 16.4174 146.532 17.5433 146.015 18.7834L147.861 19.5526ZM149.567 16.7009C150.281 15.8734 151.156 15.1818 152.205 14.6284L151.271 12.8596C150.016 13.5222 148.939 14.3666 148.052 15.3951L149.567 16.7009ZM152.195 14.6336C153.206 14.114 154.466 13.832 156.01 13.832V11.832C154.226 11.832 152.637 12.158 151.281 12.8544L152.195 14.6336ZM156.01 13.832C156.46 13.832 156.968 13.8743 157.534 13.9638L157.846 11.9882C157.196 11.8857 156.583 11.832 156.01 11.832V13.832ZM157.534 13.9638C158.054 14.0458 158.562 14.1964 159.06 14.4178L159.872 12.5902C159.218 12.2996 158.542 12.0982 157.846 11.9882L157.534 13.9638ZM159.06 14.4178C159.508 14.617 159.911 14.9043 160.271 15.2903L161.733 13.9257C161.197 13.3516 160.576 12.903 159.872 12.5902L159.06 14.4178ZM160.271 15.2903C160.601 15.6438 160.888 16.1335 161.109 16.7962L163.007 16.1638C162.715 15.2905 162.299 14.5322 161.733 13.9257L160.271 15.2903ZM162.058 17.48H162.346V15.48H162.058V17.48ZM163.168 17.0492L165.328 13.9292L163.684 12.7908L161.524 15.9108L163.168 17.0492ZM159.13 16.536C157.919 16.536 156.996 17.2242 156.358 18.2599L158.062 19.3081C158.448 18.6798 158.805 18.536 159.13 18.536V16.536ZM156.368 18.2449C155.796 19.1383 155.344 20.1721 155.003 21.3338L156.921 21.8982C157.22 20.8839 157.6 20.0297 158.052 19.3231L156.368 18.2449ZM155.003 21.3338C154.67 22.4652 154.42 23.5989 154.253 24.7345L156.231 25.0255C156.384 23.9851 156.614 22.9428 156.921 21.8982L155.003 21.3338ZM154.249 24.7597C154.12 25.8227 154.05 26.6565 154.05 27.232H156.05C156.05 26.7835 156.107 26.0493 156.235 25.0003L154.249 24.7597ZM154.05 27.232C154.05 27.9671 154.16 28.6531 154.419 29.2579L156.257 28.4701C156.132 28.1789 156.05 27.7769 156.05 27.232H154.05ZM154.457 29.3381C154.886 30.1334 155.646 30.488 156.49 30.488V28.488C156.344 28.488 156.284 28.4603 156.27 28.4527C156.263 28.4486 156.258 28.4447 156.252 28.4391C156.246 28.4331 156.234 28.4189 156.218 28.3899L154.457 29.3381ZM156.49 30.488C156.985 30.488 157.456 30.3621 157.888 30.1222L156.916 28.3738C156.772 28.4539 156.635 28.488 156.49 28.488V30.488ZM157.849 30.1424C158.217 29.9587 158.557 29.7519 158.866 29.52L157.666 27.92C157.463 28.0721 157.227 28.2173 156.955 28.3536L157.849 30.1424ZM158.88 29.5094C159.209 29.2534 159.501 28.984 159.745 28.6988L158.227 27.3972C158.087 27.56 157.899 27.7386 157.652 27.9306L158.88 29.5094ZM159.693 28.7551C159.925 28.5234 160.126 28.3067 160.266 28.12L158.666 26.92C158.614 26.9893 158.495 27.1246 158.279 27.3409L159.693 28.7551ZM160.444 27.7269L162.22 19.3269L160.264 18.9131L158.488 27.3131L160.444 27.7269ZM162.051 18.5318C161.76 18.1321 161.421 17.7407 161.037 17.3569L159.623 18.7711C159.943 19.0913 160.212 19.4039 160.433 19.7082L162.051 18.5318ZM161.07 17.3913C160.558 16.8287 159.889 16.536 159.13 16.536V18.536C159.331 18.536 159.461 18.5953 159.59 18.7367L161.07 17.3913Z" fill="white"/>
</g>
<defs>
<filter id="filter0_d" x="0.30545" y="0.743996" width="179.209" height="50.32" filterUnits="userSpaceOnUse" color-interpolation-filters="sRGB">
<feFlood flood-opacity="0" result="BackgroundImageFix"/>
<feColorMatrix in="SourceAlpha" type="matrix" values="0 0 0 0 0 0 0 0 0 0 0 0 0 0 0 0 0 0 127 0"/>
<feOffset dx="2" dy="4"/>
<feGaussianBlur stdDeviation="2"/>
<feColorMatrix type="matrix" values="0 0 0 0 0 0 0 0 0 0 0 0 0 0 0 0 0 0 0.25 0"/>
<feBlend mode="normal" in2="BackgroundImageFix" result="effect1_dropShadow"/>
<feBlend mode="normal" in="SourceGraphic" in2="effect1_dropShadow" result="shape"/>
</filter>
</defs>
</svg>
